<svg width="82" height="90" viewBox="0 0 82 90" fill="none" xmlns="http://www.w3.org/2000/svg">
  <path d="M1.98438 90L4.67238 76.7275L45.5044 45.1264C48.9177 42.4298 51.563 40.0702 53.4404 38.0478C55.403 36.0253 56.7684 34.1292 57.5364 32.3595C58.3044 30.5056 58.6884 28.6095 58.6884 26.6713C58.6884 23.7219 57.579 21.3624 55.3604 19.5927C53.1417 17.823 49.8564 16.9382 45.5044 16.9382C41.9204 16.9382 38.4644 17.7388 35.1364 19.3399C31.8937 20.941 28.9924 23.2163 26.4324 26.1657L12.4804 16.1798C16.1497 11.2921 21.1417 7.37359 27.4564 4.42415C33.771 1.47472 40.811 0 48.5764 0C54.891 0 60.395 1.05337 65.0884 3.16011C69.7817 5.18258 73.4084 7.96348 75.9684 11.5028C78.6137 15.0421 79.9364 19.1292 79.9364 23.764C79.9364 27.2191 79.2964 30.5899 78.0164 33.8764C76.7364 37.1629 74.6031 40.5337 71.6164 43.9888C68.715 47.3596 64.619 51.0674 59.3284 55.1124L25.7924 80.7725L22.4644 73.3146H73.1524L69.8244 90H1.98438Z" fill="url(#paint0_linear_2_1063)" />
  <defs>
    <linearGradient id="paint0_linear_2_1063" x1="1.98437" y1="45" x2="80.0154" y2="45.5774" gradientUnits="userSpaceOnUse">
      <stop stop-color="#2980BA" />
      <stop offset="1" stop-color="#7F4996" />
    </linearGradient>
  </defs>
</svg>