<svg width="84" height="90" viewBox="0 0 84 90" fill="none" xmlns="http://www.w3.org/2000/svg">
  <path d="M33.7045 90C27.1339 90 20.9899 89.1152 15.2725 87.3455C9.55519 85.5758 4.77652 83.0478 0.936523 79.7612L10.9205 64.7191C13.8219 67.2472 17.3632 69.2275 21.5445 70.6601C25.8112 72.0927 30.3339 72.809 35.1125 72.809C39.2085 72.809 42.6645 72.3034 45.4805 71.2921C48.3819 70.2809 50.5579 68.8062 52.0085 66.868C53.5445 64.9298 54.3125 62.6545 54.3125 60.0421C54.3125 56.8399 53.0752 54.4803 50.6005 52.9635C48.2112 51.3624 44.5419 50.5618 39.5925 50.5618H30.1205L32.8085 37.0365L63.0165 9.10113L64.4245 16.4326H17.1925L20.6485 0H83.3685L80.8085 13.2725L50.6005 41.2079L40.8725 35.3933H45.4805C51.7099 35.3933 57.0432 36.3624 61.4805 38.3006C65.9179 40.1545 69.3312 42.8511 71.7205 46.3904C74.1099 49.8455 75.3045 53.9747 75.3045 58.7781C75.3045 64.7612 73.5125 70.1124 69.9285 74.8315C66.4299 79.5506 61.5232 83.2584 55.2085 85.9551C48.9792 88.6517 41.8112 90 33.7045 90Z" fill="url(#paint0_linear_2_1061)" />
  <defs>
    <linearGradient id="paint0_linear_2_1061" x1="0.936523" y1="45" x2="83.4515" y2="45.6457" gradientUnits="userSpaceOnUse">
      <stop stop-color="#2980BA" />
      <stop offset="1" stop-color="#7F4996" />
    </linearGradient>
  </defs>
</svg>