<svg width="22" height="554" viewBox="0 0 22 554" fill="none" xmlns="http://www.w3.org/2000/svg">
<path fill-rule="evenodd" clip-rule="evenodd" d="M0.333358 543C0.333357 537.722 4.16605 533.34 9.19986 532.485C9.52394 531.817 10.2083 531.357 11 531.357C11.7918 531.357 12.4761 531.817 12.8002 532.485C17.834 533.34 21.6667 537.722 21.6667 543C21.6667 548.891 16.8911 553.667 11 553.667C5.10899 553.667 0.333358 548.891 0.333358 543ZM11 1C12.1046 1 13 1.89543 13 3L13 12.6429C13 13.7474 12.1046 14.6429 11 14.6429C9.89543 14.6429 9 13.7474 9 12.6429L9 3C9 1.89543 9.89543 1 11 1ZM11 29.9286C12.1046 29.9286 13 30.824 13 31.9286L13 51.2143C13 52.3189 12.1046 53.2143 11 53.2143C9.89543 53.2143 9 52.3189 9 51.2143L9 31.9286C9 30.824 9.89543 29.9286 11 29.9286ZM11 68.5C12.1046 68.5 13 69.3954 13 70.5L13 89.7857C13 90.8903 12.1046 91.7857 11 91.7857C9.89544 91.7857 9 90.8903 9 89.7857L9 70.5C9 69.3954 9.89543 68.5 11 68.5ZM11 107.071C12.1046 107.071 13 107.967 13 109.071L13 128.357C13 129.462 12.1046 130.357 11 130.357C9.89544 130.357 9.00001 129.462 9.00001 128.357L9.00001 109.071C9.00001 107.967 9.89544 107.071 11 107.071ZM11 145.643C12.1046 145.643 13 146.538 13 147.643L13 166.929C13 168.033 12.1046 168.929 11 168.929C9.89544 168.929 9.00001 168.033 9.00001 166.929L9.00001 147.643C9.00001 146.538 9.89544 145.643 11 145.643ZM11 184.214C12.1046 184.214 13 185.11 13 186.214L13 205.5C13 206.605 12.1046 207.5 11 207.5C9.89544 207.5 9.00001 206.605 9.00001 205.5L9.00001 186.214C9.00001 185.11 9.89544 184.214 11 184.214ZM11 222.786C12.1046 222.786 13 223.681 13 224.786L13 244.071C13 245.176 12.1046 246.071 11 246.071C9.89544 246.071 9.00001 245.176 9.00001 244.071L9.00001 224.786C9.00001 223.681 9.89544 222.786 11 222.786ZM11 261.357C12.1046 261.357 13 262.253 13 263.357L13 282.643C13 283.747 12.1046 284.643 11 284.643C9.89544 284.643 9.00001 283.747 9.00001 282.643L9.00001 263.357C9.00001 262.253 9.89544 261.357 11 261.357ZM11 299.929C12.1046 299.929 13 300.824 13 301.929L13 321.214C13 322.319 12.1046 323.214 11 323.214C9.89545 323.214 9.00002 322.319 9.00002 321.214L9.00001 301.929C9.00001 300.824 9.89544 299.929 11 299.929ZM11 338.5C12.1046 338.5 13 339.395 13 340.5V359.786C13 360.89 12.1046 361.786 11 361.786C9.89545 361.786 9.00002 360.89 9.00002 359.786V340.5C9.00002 339.395 9.89545 338.5 11 338.5ZM11 377.071C12.1046 377.071 13 377.967 13 379.071L13 398.357C13 399.462 12.1046 400.357 11 400.357C9.89545 400.357 9.00002 399.462 9.00002 398.357L9.00002 379.071C9.00002 377.967 9.89545 377.071 11 377.071ZM11 415.643C12.1046 415.643 13 416.538 13 417.643L13 436.929C13 438.033 12.1046 438.929 11 438.929C9.89545 438.929 9.00002 438.033 9.00002 436.929L9.00002 417.643C9.00002 416.538 9.89545 415.643 11 415.643ZM11 454.214C12.1046 454.214 13 455.11 13 456.214L13 475.5C13 476.604 12.1046 477.5 11 477.5C9.89545 477.5 9.00002 476.604 9.00002 475.5L9.00002 456.214C9.00002 455.11 9.89545 454.214 11 454.214ZM11 492.786C12.1046 492.786 13 493.681 13 494.786L13 514.071C13 515.176 12.1046 516.071 11 516.071C9.89545 516.071 9.00002 515.176 9.00002 514.071L9.00002 494.786C9.00002 493.681 9.89545 492.786 11 492.786Z" fill="#7F4996"/>
<path d="M11 328L22 304H0L11 328Z" fill="#7F4996"/>
<path d="M11 24L22 0H0L11 24Z" fill="#7F4996"/>
</svg>
