<svg width="22" height="633" viewBox="0 0 22 633" fill="none" xmlns="http://www.w3.org/2000/svg">
  <path d="M11 24L22 4.66255e-07H0L11 24Z" fill="#7F4996" />
  <path d="M11 368L22 344H0L11 368Z" fill="#7F4996" />
  <path fill-rule="evenodd" clip-rule="evenodd" d="M21.6667 622C21.6667 627.891 16.891 632.667 11 632.667C5.10896 632.667 0.333333 627.891 0.333333 622C0.333333 616.73 4.1545 612.353 9.1771 611.489C9.49109 610.795 10.1892 610.312 11 610.312C11.8108 610.312 12.5089 610.795 12.8229 611.489C17.8455 612.353 21.6667 616.73 21.6667 622ZM11 594.938C9.89543 594.938 9 594.042 9 592.938L9 573.562C9 572.458 9.89543 571.562 11 571.562C12.1046 571.562 13 572.458 13 573.562L13 592.938C13 594.042 12.1046 594.938 11 594.938ZM11 556.188C9.89543 556.188 9 555.292 9 554.188L9 534.812C9 533.708 9.89543 532.812 11 532.812C12.1046 532.812 13 533.708 13 534.812L13 554.188C13 555.292 12.1046 556.188 11 556.188ZM11 517.438C9.89543 517.438 9 516.542 9 515.438L8.99999 496.063C8.99999 494.958 9.89542 494.062 11 494.062C12.1046 494.062 13 494.958 13 496.062L13 515.438C13 516.542 12.1046 517.438 11 517.438ZM11 478.688C9.89542 478.688 8.99999 477.792 8.99999 476.688L8.99999 457.313C8.99999 456.208 9.89542 455.312 11 455.312C12.1046 455.312 13 456.208 13 457.312L13 476.688C13 477.792 12.1046 478.688 11 478.688ZM11 439.938C9.89542 439.938 8.99999 439.042 8.99999 437.938L8.99999 418.563C8.99999 417.458 9.89542 416.562 11 416.562C12.1046 416.562 13 417.458 13 418.562L13 437.938C13 439.042 12.1046 439.938 11 439.938ZM11 401.188C9.89542 401.188 8.99999 400.292 8.99999 399.188L8.99999 379.813C8.99999 378.708 9.89542 377.812 11 377.812C12.1046 377.812 13 378.708 13 379.812L13 399.188C13 400.292 12.1046 401.188 11 401.188ZM11 362.438C9.89542 362.438 8.99999 361.542 8.99999 360.438L8.99999 341.063C8.99999 339.958 9.89542 339.063 11 339.063C12.1046 339.063 13 339.958 13 341.063L13 360.438C13 361.542 12.1046 362.438 11 362.438ZM11 323.688C9.89542 323.688 8.99999 322.792 8.99999 321.688L8.99999 302.313C8.99999 301.208 9.89542 300.313 11 300.313C12.1046 300.313 13 301.208 13 302.313L13 321.688C13 322.792 12.1046 323.688 11 323.688ZM11 284.938C9.89542 284.938 8.99998 284.042 8.99998 282.938V263.563C8.99998 262.458 9.89541 261.563 11 261.563C12.1046 261.563 13 262.458 13 263.563V282.938C13 284.042 12.1046 284.938 11 284.938ZM11 246.188C9.89541 246.188 8.99998 245.292 8.99998 244.188L8.99998 224.813C8.99998 223.708 9.89541 222.813 11 222.813C12.1046 222.813 13 223.708 13 224.813L13 244.188C13 245.292 12.1046 246.188 11 246.188ZM11 207.438C9.89541 207.438 8.99998 206.542 8.99998 205.438L8.99998 186.063C8.99998 184.958 9.89541 184.063 11 184.063C12.1046 184.063 13 184.958 13 186.063L13 205.438C13 206.542 12.1046 207.438 11 207.438ZM11 168.688C9.89541 168.688 8.99998 167.792 8.99998 166.688L8.99998 147.313C8.99998 146.208 9.89541 145.313 11 145.313C12.1045 145.313 13 146.208 13 147.313L13 166.688C13 167.792 12.1045 168.688 11 168.688ZM11 129.938C9.89541 129.938 8.99998 129.042 8.99998 127.938L8.99998 108.562C8.99998 107.458 9.89541 106.562 11 106.562C12.1045 106.562 13 107.458 13 108.562L13 127.938C13 129.042 12.1045 129.938 11 129.938ZM11 91.1875C9.89541 91.1875 8.99998 90.2921 8.99998 89.1875L8.99998 69.8125C8.99998 68.7079 9.89541 67.8125 11 67.8125C12.1045 67.8125 13 68.7079 13 69.8125L13 89.1875C13 90.2921 12.1045 91.1875 11 91.1875ZM11 52.4375C9.89541 52.4375 8.99998 51.5421 8.99998 50.4375L8.99997 31.0625C8.99997 29.9579 9.8954 29.0625 11 29.0625C12.1045 29.0625 13 29.9579 13 31.0625L13 50.4375C13 51.5421 12.1045 52.4375 11 52.4375ZM11 13.6875C9.8954 13.6875 8.99997 12.7921 8.99997 11.6875V2C8.99997 0.895447 9.8954 4.82823e-08 11 0C12.1045 -4.82823e-08 13 0.895447 13 2V11.6875C13 12.7921 12.1045 13.6875 11 13.6875Z" fill="#7F4996" />
</svg>