<svg width="108" height="103" viewBox="0 0 108 103" fill="none" xmlns="http://www.w3.org/2000/svg">
  <path d="M54.2109 30.3333V61M54.2109 81V83.1667M54.0477 4.00006C52.6544 3.99439 51.2832 4.40313 50.0649 5.18726C48.8466 5.97139 47.8219 7.10472 47.0887 8.47906L5.09628 86.447C4.38229 87.7536 4.00217 89.2683 4 90.8154C3.99991 91.8995 4.18549 92.9728 4.54595 93.973C4.90641 94.9732 5.43457 95.8803 6.09976 96.6417C6.76494 97.4031 7.5539 98.0036 8.4208 98.4083C9.28771 98.813 10.2153 99.0139 11.1497 98.9993H96.9457C98.8166 98.9993 100.611 98.137 101.934 96.6023C103.257 95.0675 104 92.9859 104 90.8154C103.998 89.2683 103.618 87.7536 102.904 86.447L61.0067 8.47906C60.2734 7.10472 59.2487 5.97139 58.0304 5.18726C56.8121 4.40313 55.4409 3.99439 54.0477 4.00006Z" stroke="url(#paint0_linear_76_682)" stroke-width="8" stroke-miterlimit="10" stroke-linecap="round" stroke-linejoin="round" />
  <defs>
    <linearGradient id="paint0_linear_76_682" x1="4" y1="51.5" x2="104.099" y2="52.4002" gradientUnits="userSpaceOnUse">
      <stop stop-color="#2980BA" />
      <stop offset="1" stop-color="#7F4996" />
    </linearGradient>
  </defs>
</svg>