<svg width="34" height="34" viewBox="0 0 34 34" fill="none" xmlns="http://www.w3.org/2000/svg">
  <g clip-path="url(#clip0_1379_21)">
    <rect width="34" height="34" rx="8" fill="url(#paint0_linear_1379_21)" />
    <path d="M11 32.7998V18.9801L23.542 26.1556C24.465 26.6836 25.5986 26.6836 26.5216 26.1556L39.0636 18.9801V32.7998C39.0636 33.7709 39.0615 34.3986 38.9993 34.8611C38.941 35.2948 38.8468 35.4308 38.7707 35.5069C38.6946 35.583 38.5586 35.6772 38.1249 35.7355C37.6624 35.7977 37.0347 35.7998 36.0636 35.7998H14C13.0289 35.7998 12.4012 35.7977 11.9387 35.7355C11.505 35.6772 11.369 35.583 11.2929 35.5069C11.2168 35.4308 11.1226 35.2948 11.0643 34.8611C11.0021 34.3986 11 33.7709 11 32.7998ZM39.0636 16.6759L25.5284 24.4196C25.2207 24.5956 24.8429 24.5956 24.5352 24.4196L11 16.6759V15C11 14.0289 11.0021 13.4012 11.0643 12.9387C11.1226 12.505 11.2168 12.369 11.2929 12.2929C11.369 12.2168 11.505 12.1226 11.9387 12.0643C12.4012 12.0021 13.0289 12 14 12H36.0636C37.0347 12 37.6624 12.0021 38.1249 12.0643C38.5586 12.1226 38.6946 12.2168 38.7707 12.2929C38.8468 12.369 38.941 12.505 38.9993 12.9387C39.0615 13.4012 39.0636 14.0289 39.0636 15V16.6759Z" stroke="white" stroke-width="2" />
  </g>
  <defs>
    <linearGradient id="paint0_linear_1379_21" x1="-1.58325e-07" y1="17" x2="34.0338" y2="17.2908" gradientUnits="userSpaceOnUse">
      <stop stop-color="#2980BA" />
      <stop offset="1" stop-color="#7F4996" />
    </linearGradient>
    <clipPath id="clip0_1379_21">
      <rect width="34" height="34" rx="8" fill="white" />
    </clipPath>
  </defs>
</svg>