<svg width="34" height="34" viewBox="0 0 34 34" fill="none" xmlns="http://www.w3.org/2000/svg">
  <g clip-path="url(#clip0_2_1074)">
    <rect width="34" height="34" rx="8" fill="url(#paint0_linear_2_1074)" />
    <path d="M11.6796 11.2093L14.1818 8.70711C14.5723 8.31658 15.2055 8.31658 15.596 8.70711L21.0707 14.1818C21.4612 14.5723 21.4612 15.2055 21.0707 15.596L18.8013 17.8653C18.5219 18.1448 18.4526 18.5718 18.6293 18.9253C20.673 23.0127 23.9873 26.327 28.0747 28.3707C28.4282 28.5474 28.8552 28.4781 29.1347 28.1987L31.404 25.9293C31.7945 25.5388 32.4277 25.5388 32.8182 25.9293L38.2929 31.404C38.6834 31.7945 38.6834 32.4277 38.2929 32.8182L35.7907 35.3204C33.6794 37.4317 30.3368 37.6693 27.9481 35.8777L20.9619 30.6381C19.2184 29.3304 17.6696 27.7816 16.3619 26.0381L11.1223 19.0519C9.33072 16.6632 9.56827 13.3206 11.6796 11.2093Z" stroke="white" stroke-width="3" />
  </g>
  <defs>
    <linearGradient id="paint0_linear_2_1074" x1="-1.58325e-07" y1="17" x2="34.0338" y2="17.2908" gradientUnits="userSpaceOnUse">
      <stop stop-color="#2980BA" />
      <stop offset="1" stop-color="#7F4996" />
    </linearGradient>
    <clipPath id="clip0_2_1074">
      <rect width="34" height="34" rx="8" fill="white" />
    </clipPath>
  </defs>
</svg>