<svg width="34" height="34" viewBox="0 0 34 34" fill="none" xmlns="http://www.w3.org/2000/svg">
  <g clip-path="url(#clip0_2_1068)">
    <rect width="34" height="34" rx="8" fill="url(#paint0_linear_2_1068)" />
    <path fill-rule="evenodd" clip-rule="evenodd" d="M38.9346 8.69738C39.4239 6.31494 37.0811 4.33509 34.8098 5.2116L6.96886 15.9557C4.43247 16.9345 4.31945 20.4772 6.7883 21.6152L12.8513 24.4103L15.7355 34.4932C15.8853 35.017 16.3014 35.4225 16.8293 35.5592C17.3572 35.6957 17.9181 35.5432 18.3037 35.1579L22.7466 30.7202L28.9702 35.3825C30.7768 36.7358 33.3788 35.7501 33.8325 33.5405L38.9346 8.69738ZM8.07824 18.8237L35.9192 8.07956L30.8171 32.9229L23.5257 27.4606C22.9129 27.0015 22.0555 27.0624 21.5139 27.6034L19.611 29.5041L20.1827 26.3633L31.386 15.1733C31.9313 14.6287 31.9888 13.7652 31.5208 13.1531C31.0527 12.5411 30.2036 12.3694 29.5341 12.7515L14.0621 21.5822L8.07824 18.8237ZM15.9486 24.0466L16.8819 27.3093L17.2402 25.3408C17.2962 25.0332 17.4448 24.7499 17.6662 24.5288L21.0828 21.1164L15.9486 24.0466Z" fill="white" />
  </g>
  <defs>
    <linearGradient id="paint0_linear_2_1068" x1="-1.58325e-07" y1="17" x2="34.0338" y2="17.2908" gradientUnits="userSpaceOnUse">
      <stop stop-color="#2980BA" />
      <stop offset="1" stop-color="#7F4996" />
    </linearGradient>
    <clipPath id="clip0_2_1068">
      <rect width="34" height="34" rx="8" fill="white" />
    </clipPath>
  </defs>
</svg>