<svg width="34" height="34" viewBox="0 0 34 34" fill="none" xmlns="http://www.w3.org/2000/svg">
  <g clip-path="url(#clip0_2_1072)">
    <rect width="34" height="34" rx="8" fill="url(#paint0_linear_2_1072)" />
    <path d="M24.5 43C33.6127 43 41 35.6127 41 26.5C41 17.3873 33.6127 10 24.5 10M24.5 43C15.3873 43 8 35.6127 8 26.5C8 17.3873 15.3873 10 24.5 10M24.5 43C28.0899 43 31 35.6127 31 26.5C31 17.3873 28.0899 10 24.5 10M24.5 43C20.9101 43 18 35.6127 18 26.5C18 17.3873 20.9101 10 24.5 10M8 27H41" stroke="white" stroke-width="3" stroke-linecap="round" />
  </g>
  <defs>
    <linearGradient id="paint0_linear_2_1072" x1="-1.58325e-07" y1="17" x2="34.0338" y2="17.2908" gradientUnits="userSpaceOnUse">
      <stop stop-color="#2980BA" />
      <stop offset="1" stop-color="#7F4996" />
    </linearGradient>
    <clipPath id="clip0_2_1072">
      <rect width="34" height="34" rx="8" fill="white" />
    </clipPath>
  </defs>
</svg>