<?xml version="1.0"?>
<svg xmlns="http://www.w3.org/2000/svg" xmlns:xlink="http://www.w3.org/1999/xlink" version="1.1" xml:space="preserve">
  <defs>

    <symbol id="loader" width="100%" height="100%" viewBox="22 22 44 44">
      <circle cx="44" cy="44" r="20.2" fill="transparent" stroke="currentColor" stroke-width="4" />
    </symbol>

    <symbol id="burger" width="100%" height="100%" viewBox="0 0 32 22">
      <path d="M1 1H31M1 11H31M1 21H31" fill="transparent" stroke="currentColor" stroke-width="2" stroke-linecap="round" />
    </symbol>

    <symbol id="telephone" width="100%" height="100%" viewBox="0 0 23 23">
      <path d="M3.67962 2.20927L4.18178 1.70711C4.57231 1.31658 5.20547 1.31658 5.59599 1.70711L9.07067 5.18178C9.46119 5.57231 9.4612 6.20547 9.07067 6.59599L7.66547 8.0012C7.46712 8.19955 7.41795 8.50256 7.54339 8.75345C8.99376 11.6542 11.3458 14.0062 14.2465 15.4566C14.4974 15.5821 14.8005 15.5329 14.9988 15.3345L16.404 13.9293C16.7945 13.5388 17.4277 13.5388 17.8182 13.9293L21.2929 17.404C21.6834 17.7945 21.6834 18.4277 21.2929 18.8182L20.7907 19.3204C18.6794 21.4317 15.3368 21.6693 12.9481 19.8777L9.9619 17.6381C8.21837 16.3304 6.66955 14.7816 5.36191 13.0381L3.12226 10.0519C1.33072 7.66318 1.56827 4.32062 3.67962 2.20927Z" fill="transparent" stroke="currentColor" stroke-width="2" />
    </symbol>

    <symbol id="close" width="100%" height="100%" viewBox="0 0 16 16">
      <path d="M1 15L15 1M1 1L15 15" fill="transparent" stroke="currentColor" stroke-width="2" stroke-linecap="round" stroke-linejoin="round" />
    </symbol>

    <symbol id="arrow-left" width="100%" height="100%" viewBox="0 0 53 60">
      <path d="M49 26C51.2091 26 53 27.7909 53 30C53 32.2091 51.2091 34 49 34V26ZM1.17157 32.8284C-0.390526 31.2663 -0.390526 28.7337 1.17157 27.1716L26.6274 1.71573C28.1895 0.153631 30.7222 0.153631 32.2843 1.71573C33.8464 3.27783 33.8464 5.81049 32.2843 7.37258L9.65685 30L32.2843 52.6274C33.8464 54.1895 33.8464 56.7222 32.2843 58.2843C30.7222 59.8464 28.1895 59.8464 26.6274 58.2843L1.17157 32.8284ZM49 34H4V26H49V34Z" fill="currentColor" />
    </symbol>

    <symbol id="arrow-right" width="100%" height="100%" viewBox="0 0 53 60">
      <path d="M4 26C1.79086 26 0 27.7909 0 30C0 32.2091 1.79086 34 4 34V26ZM51.8284 32.8284C53.3905 31.2663 53.3905 28.7337 51.8284 27.1716L26.3726 1.71573C24.8105 0.153631 22.2778 0.153631 20.7157 1.71573C19.1536 3.27783 19.1536 5.81049 20.7157 7.37258L43.3431 30L20.7157 52.6274C19.1536 54.1895 19.1536 56.7222 20.7157 58.2843C22.2778 59.8464 24.8105 59.8464 26.3726 58.2843L51.8284 32.8284ZM4 34H49V26H4V34Z" fill="currentColor" />
    </symbol>

    <symbol id="experience" width="100%" height="100%" viewBox="0 0 140 140">
      <path d="M69.0001 71.2C73.4001 68.4 78.8001 66.9 84.4001 66.9H105.9C117 66.9 127.5 72.8 131 83.3C133.2 89.9 135.2 97.9 135.3 105.9C135.3 106.5 134.9 106.9 134.3 106.9H77.9001M118.1 26.9C118.1 39.5473 107.803 49.8 95.1001 49.8C82.3975 49.8 72.1001 39.5473 72.1001 26.9C72.1001 14.2527 82.3975 4 95.1001 4C107.803 4 118.1 14.2527 118.1 26.9ZM41 59.6C45.3 48.8 47.4 43.4 51.1 43.4C54.8 43.4 56.9001 48.8 61.2001 59.6L61.4001 60.1C63.8001 66.2 65 69.3 67.5 71.1C70 73 73.2001 73.3 79.7001 73.8L81.0001 74C91.6001 75 96.9001 75.4 98.1001 78.9C99.2001 82.3 95.3001 85.9 87.4001 93.2L84.8001 95.6C80.8001 99.3 78.8001 101.1 77.9001 103.5C77.7001 103.9 77.6001 104.4 77.5001 104.9C76.9001 107.4 77.5001 110.1 78.6001 115.4L79.0001 117.1C81.2001 126.9 82.2001 131.8 80.3001 133.9C79.6001 134.7 78.7001 135.3 77.7001 135.5C75.0001 136.2 71.1001 133.1 63.4001 126.7C58.3001 122.5 55.8001 120.5 52.9001 120C51.8001 119.8 50.6 119.8 49.5 120C46.6 120.5 44.1 122.5 39 126.7C31.3 133 27.5001 136.2 24.7001 135.5C23.7001 135.2 22.8 134.7 22.1 133.9C20.2 131.8 21.3 126.9 23.4 117.1L23.8 115.4C25 110.1 25.6 107.4 24.9 104.9C24.8 104.4 24.6 104 24.5 103.5C23.6 101.1 21.6001 99.3 17.6001 95.6L15.0001 93.2C7.00005 85.9 3.10005 82.2 4.20005 78.8C5.30005 75.4 10.7 74.9 21.3 73.9L22.5 73.8C29 73.2 32.2001 72.9 34.7001 71.1C37.2001 69.2 38.4 66.2 40.8 60.1L41 59.6Z" fill="transparent" stroke="currentColor" stroke-width="8" stroke-linecap="round" />
    </symbol>

    <symbol id="knowledge" width="100%" height="100%" viewBox="0 0 140 140">
      <path d="M53.6171 44.4823V3.97168M136.028 86.383H95.3192M118.653 26.2128L92.9362 49.844L81.1206 38.8227L68.9079 50.4398M106.837 20.7518H124.709V38.6242M24.5249 131.957H34.1561L44.1844 136.028H78.3405C81.4185 136.028 84.3972 134.936 86.6809 132.851C88.9646 130.766 90.3547 127.986 90.6525 124.908L94.3263 85.4894C94.3263 84.8937 94.3263 84.2979 94.3263 83.7022C94.3263 81.2199 93.3334 78.8369 91.5462 77.0497C89.7589 75.2625 87.3759 74.2696 84.8937 74.2696H64.8369L67.1206 69.6029C68.9079 65.9291 69.8015 61.9575 69.8015 57.8866C69.8015 56.2979 69.5036 54.7093 68.9079 53.2199C68.3121 51.7305 67.4185 50.3405 66.227 49.2483C65.0355 48.0568 63.7447 47.1632 62.2554 46.5674C60.766 45.9717 59.1774 45.6738 57.5887 45.6738C56.4965 45.6738 55.4043 45.8724 54.4114 46.2696C53.4185 46.6667 52.5249 47.2625 51.7305 48.0568C50.9362 48.8511 50.3405 49.7447 49.9433 50.7376C49.5461 51.7305 49.3476 52.8227 49.3476 53.9149C49.3476 59.5745 47.461 65.1348 43.9859 69.7022L33.7589 82.5107H24.5249M24.5249 78.4398H3.97168V136.028H24.5249V78.4398Z" fill="transparent" stroke="currentColor" stroke-width="8" stroke-miterlimit="10" stroke-linecap="round" stroke-linejoin="round" />
    </symbol>

    <symbol id="complexity" width="100%" height="100%" viewBox="0 0 140 140">
      <path d="M89.5545 34.1949L99.804 47.5844L114.247 28.2943M101.232 4.96484V19.2034M101.232 59.0958V73.3343M135.979 39.1494H121.505M80.9558 39.1494H66.4825M32.1965 112.195C32.1965 112.195 36.7792 92.7251 52.3978 88.4734C58.5438 87.4994 64.7883 87.2726 70.9906 87.7981C73.4771 83.6484 77.116 80.2835 81.4795 78.0991C85.843 75.9147 90.7497 75.0016 95.6227 75.4671C100.496 75.9324 105.132 77.7572 108.988 80.7267C112.842 83.6961 115.756 87.6869 117.384 92.2296C119.013 96.7724 119.29 101.679 118.182 106.37C117.074 111.063 114.628 115.346 111.131 118.717C107.633 122.088 103.23 124.406 98.4399 125.4C93.6493 126.393 88.67 126.02 84.0876 124.324C68.0293 132.01 35.9821 143.73 10.5215 128.909C-2.99578 121.039 7.15504 74.4337 17.7547 56.8065L30.4906 35.6265C32.0803 33.0011 34.6309 31.0738 37.6191 30.2405C40.6074 29.4071 43.8064 29.7309 46.5597 31.1452C54.8148 35.3975 65.0766 41.9249 64.3718 48.7094C63.4842 58.708 46.882 67.9213 38.0403 62.774C33.9318 69.6063 33.4744 89.3868 36.2288 102.059M101.231 67.6264C117.218 67.6264 130.177 54.8767 130.177 39.1493C130.177 23.4217 117.218 10.6721 101.231 10.6721C85.2435 10.6721 72.2837 23.4217 72.2837 39.1493C72.2837 54.8767 85.2435 67.6264 101.231 67.6264Z" fill="transparent" stroke="currentColor" stroke-width="8" stroke-miterlimit="10" stroke-linecap="round" stroke-linejoin="round" />
    </symbol>

  </defs>
</svg>