<?xml version="1.0"?>
<svg xmlns="http://www.w3.org/2000/svg" xmlns:xlink="http://www.w3.org/1999/xlink" version="1.1" xml:space="preserve">
  <defs>

    <symbol id="loader" width="100%" height="100%" viewBox="22 22 44 44">
      <circle cx="44" cy="44" r="20.2" fill="transparent" stroke="currentColor" stroke-width="4" />
    </symbol>

    <symbol id="burger" width="100%" height="100%" viewBox="0 0 32 22">
      <path d="M1 1H31M1 11H31M1 21H31" fill="transparent" stroke="currentColor" stroke-width="2" stroke-linecap="round" />
    </symbol>

    <symbol id="telephone" width="100%" height="100%" viewBox="0 0 23 23">
      <path d="M3.67962 2.20927L4.18178 1.70711C4.57231 1.31658 5.20547 1.31658 5.59599 1.70711L9.07067 5.18178C9.46119 5.57231 9.4612 6.20547 9.07067 6.59599L7.66547 8.0012C7.46712 8.19955 7.41795 8.50256 7.54339 8.75345C8.99376 11.6542 11.3458 14.0062 14.2465 15.4566C14.4974 15.5821 14.8005 15.5329 14.9988 15.3345L16.404 13.9293C16.7945 13.5388 17.4277 13.5388 17.8182 13.9293L21.2929 17.404C21.6834 17.7945 21.6834 18.4277 21.2929 18.8182L20.7907 19.3204C18.6794 21.4317 15.3368 21.6693 12.9481 19.8777L9.9619 17.6381C8.21837 16.3304 6.66955 14.7816 5.36191 13.0381L3.12226 10.0519C1.33072 7.66318 1.56827 4.32062 3.67962 2.20927Z" fill="transparent" stroke="currentColor" stroke-width="2" />
    </symbol>

    <symbol id="close" width="100%" height="100%" viewBox="0 0 16 16">
      <path d="M1 15L15 1M1 1L15 15" fill="transparent" stroke="currentColor" stroke-width="2" stroke-linecap="round" stroke-linejoin="round" />
    </symbol>

    <symbol id="arrow-left" width="100%" height="100%" viewBox="0 0 53 60">
      <path d="M49 26C51.2091 26 53 27.7909 53 30C53 32.2091 51.2091 34 49 34V26ZM1.17157 32.8284C-0.390526 31.2663 -0.390526 28.7337 1.17157 27.1716L26.6274 1.71573C28.1895 0.153631 30.7222 0.153631 32.2843 1.71573C33.8464 3.27783 33.8464 5.81049 32.2843 7.37258L9.65685 30L32.2843 52.6274C33.8464 54.1895 33.8464 56.7222 32.2843 58.2843C30.7222 59.8464 28.1895 59.8464 26.6274 58.2843L1.17157 32.8284ZM49 34H4V26H49V34Z" fill="currentColor" />
    </symbol>

    <symbol id="arrow-right" width="100%" height="100%" viewBox="0 0 53 60">
      <path d="M4 26C1.79086 26 0 27.7909 0 30C0 32.2091 1.79086 34 4 34V26ZM51.8284 32.8284C53.3905 31.2663 53.3905 28.7337 51.8284 27.1716L26.3726 1.71573C24.8105 0.153631 22.2778 0.153631 20.7157 1.71573C19.1536 3.27783 19.1536 5.81049 20.7157 7.37258L43.3431 30L20.7157 52.6274C19.1536 54.1895 19.1536 56.7222 20.7157 58.2843C22.2778 59.8464 24.8105 59.8464 26.3726 58.2843L51.8284 32.8284ZM4 34H49V26H4V34Z" fill="currentColor" />
    </symbol>

  </defs>
</svg>